<mxfile host="app.diagrams.net" modified="2024-05-29T06:28:42.991Z" agent="Mozilla/5.0 (Windows NT 10.0; Win64; x64) AppleWebKit/537.36 (KHTML, like Gecko) Chrome/125.0.0.0 Safari/537.36" version="24.4.9" etag="yBqpm7RIq13E3NzmA37N" type="github">
  <diagram name="Page-1" id="OeJpEg577vq1SHaVRTen">
    <mxGraphModel>
      <root>
        <mxCell id="0" />
        <mxCell id="1" parent="0" />
      </root>
    </mxGraphModel>
  </diagram>
</mxfile>
